<svg xmlns="http://www.w3.org/2000/svg" fill="none" viewBox="-0.5 -0.5 48 48" height="48" width="48"><path fill="#eecbe7" d="m46.02083333333333 10.770833333333332 -22.520833333333332 11.75 -22.520833333333332 -11.75v-5.875h45.041666666666664v5.875Z" stroke-width="1"></path><path fill="#ffffff" d="M46.02083333333333 4.895833333333333H0.9791666666666666V9.791666666666666h45.041666666666664V4.895833333333333Z" stroke-width="1"></path><path stroke="#191919" stroke-linecap="round" stroke-linejoin="round" d="m46.02083333333333 10.770833333333332 -22.520833333333332 11.75 -22.520833333333332 -11.75v-5.875h45.041666666666664v5.875Z" stroke-width="1"></path><path fill="#eecbe7" d="m0.9791666666666666 18.604166666666664 22.520833333333332 11.75 22.520833333333332 -11.75v23.5H0.9791666666666666v-23.5Z" stroke-width="1"></path><path fill="#deb0d5" d="M23.5 30.354166666666664 0.9791666666666666 18.604166666666664V23.5L23.5 35.25l22.520833333333332 -11.75V18.604166666666664l-22.520833333333332 11.75Z" stroke-width="1"></path><path stroke="#191919" stroke-linecap="round" stroke-linejoin="round" d="m0.9791666666666666 18.604166666666664 22.520833333333332 11.75 22.520833333333332 -11.75v23.5H0.9791666666666666v-23.5Z" stroke-width="1"></path><path stroke="#191919" stroke-linecap="round" stroke-linejoin="round" d="M29.361291666666666 27.29525 46.02083333333333 37.20833333333333" stroke-width="1"></path><path stroke="#191919" stroke-linecap="round" stroke-linejoin="round" d="M17.638708333333334 27.29525 0.9791666666666666 37.20833333333333" stroke-width="1"></path></svg>