<svg xmlns="http://www.w3.org/2000/svg" fill="none" viewBox="-0.5 -0.5 48 48" height="48" width="48"><path fill="#deb0d5" d="M23.5 0.9038461538461539a20.78846153846154 20.78846153846154 0 0 0 -6.570961538461538 40.51761538461539c1.0376153846153846 0.1807692307692308 1.3666153846153846 -0.4284230769230769 1.3666153846153846 -0.9779615384615385 0 -0.4971153846153847 0.010846153846153846 -1.874576923076923 0 -3.6153846153846154 -5.784615384615385 1.2545384615384614 -6.979500000000001 -2.738653846153846 -6.979500000000001 -2.738653846153846a5.500807692307693 5.500807692307693 0 0 0 -2.3066153846153847 -3.0405384615384614c-1.8872307692307693 -1.2906923076923076 0.14100000000000001 -1.2653846153846153 0.14100000000000001 -1.2653846153846153a4.363769230769231 4.363769230769231 0 0 1 3.1851538461538462 2.140307692307692 4.425230769230769 4.425230769230769 0 0 0 6.048538461538461 1.7281538461538462 4.4288461538461545 4.4288461538461545 0 0 1 1.3196153846153846 -2.7693846153846153c-4.615038461538462 -0.5278461538461539 -9.468692307692308 -2.310230769230769 -9.468692307692308 -10.278538461538462a8.038807692307692 8.038807692307692 0 0 1 2.142115384615385 -5.578538461538462 7.4585384615384624 7.4585384615384624 0 0 1 0.20246153846153847 -5.500807692307693s1.7480384615384614 -0.5585769230769231 5.715923076923077 2.133076923076923a19.673115384615382 19.673115384615382 0 0 1 10.412307692307692 0c3.9769230769230774 -2.6898461538461538 5.7105 -2.133076923076923 5.7105 -2.133076923076923a7.46576923076923 7.46576923076923 0 0 1 0.20607692307692307 5.500807692307693 8.029769230769231 8.029769230769231 0 0 1 2.1385 5.5821538461538465c0 7.99 -4.860884615384616 9.745269230769232 -9.492192307692308 10.256846153846155a4.929576923076923 4.929576923076923 0 0 1 1.4226538461538463 3.8323076923076926v5.755692307692308c0 0.5549615384615385 0.3362307692307692 1.169576923076923 1.391923076923077 0.968923076923077A20.78846153846154 20.78846153846154 0 0 0 23.5 0.9038461538461539Z" stroke-width="1"></path><path fill="#f4d4ee" d="M12.201923076923077 10.730461538461538a9.146923076923077 9.146923076923077 0 0 1 0.3778076923076923 -1.2057307692307693c0.517 -0.08496153846153846 1.0448461538461538 -0.04880769230769231 1.545576923076923 0.10484615384615385a20.64746153846154 20.64746153846154 0 0 1 18.751192307692307 0c0.49892307692307697 -0.15365384615384617 1.0267692307692307 -0.1916153846153846 1.5419615384615384 -0.10665384615384615 0.15365384615384617 0.39226923076923076 0.2801923076923077 0.7953846153846154 0.3778076923076923 1.2057307692307693a20.757730769230772 20.757730769230772 0 0 1 9.21923076923077 14.28076923076923 20.78846153846154 20.78846153846154 0 1 0 -41.04546153846154 0A20.76134615384615 20.76134615384615 0 0 1 12.201923076923077 10.730461538461538Z" stroke-width="1"></path><path stroke="#191919" stroke-linecap="round" stroke-linejoin="round" d="M23.5 0.9038461538461539a20.78846153846154 20.78846153846154 0 0 0 -6.570961538461538 40.51761538461539c1.0376153846153846 0.1807692307692308 1.3666153846153846 -0.4284230769230769 1.3666153846153846 -0.9779615384615385 0 -0.4971153846153847 0.010846153846153846 -1.874576923076923 0 -3.6153846153846154 -5.784615384615385 1.2545384615384614 -6.979500000000001 -2.738653846153846 -6.979500000000001 -2.738653846153846a5.500807692307693 5.500807692307693 0 0 0 -2.3066153846153847 -3.0405384615384614c-1.8872307692307693 -1.2906923076923076 0.14100000000000001 -1.2653846153846153 0.14100000000000001 -1.2653846153846153a4.363769230769231 4.363769230769231 0 0 1 3.1851538461538462 2.140307692307692 4.425230769230769 4.425230769230769 0 0 0 6.048538461538461 1.7281538461538462 4.4288461538461545 4.4288461538461545 0 0 1 1.3196153846153846 -2.7693846153846153c-4.615038461538462 -0.5278461538461539 -9.468692307692308 -2.310230769230769 -9.468692307692308 -10.278538461538462a8.038807692307692 8.038807692307692 0 0 1 2.142115384615385 -5.578538461538462 7.4585384615384624 7.4585384615384624 0 0 1 0.20246153846153847 -5.500807692307693s1.7480384615384614 -0.5585769230769231 5.715923076923077 2.133076923076923a19.673115384615382 19.673115384615382 0 0 1 10.412307692307692 0c3.9769230769230774 -2.6898461538461538 5.7105 -2.133076923076923 5.7105 -2.133076923076923a7.46576923076923 7.46576923076923 0 0 1 0.20607692307692307 5.500807692307693 8.029769230769231 8.029769230769231 0 0 1 2.1385 5.5821538461538465c0 7.99 -4.860884615384616 9.745269230769232 -9.492192307692308 10.256846153846155a4.929576923076923 4.929576923076923 0 0 1 1.4226538461538463 3.8323076923076926v5.755692307692308c0 0.5549615384615385 0.3362307692307692 1.169576923076923 1.391923076923077 0.968923076923077A20.78846153846154 20.78846153846154 0 0 0 23.5 0.9038461538461539v0Z" stroke-width="1"></path></svg>