<svg xmlns="http://www.w3.org/2000/svg" fill="none" viewBox="0 0 20 20" height="20" width="20"><g id="linkedin--network-linkedin-professional"><path id="Union" fill="#deb0d5" fill-rule="evenodd" d="M4.161428571428571 3.3742857142857146c0.37142857142857144 -0.3828571428571429 0.5757142857142857 -0.8942857142857144 0.5714285714285715 -1.4257142857142857A2.0242857142857145 2.0242857142857145 0 0 0 2.7542857142857144 0 2.04 2.04 0 0 0 0.76 1.9485714285714288a2.0714285714285716 2.0714285714285716 0 0 0 1.9942857142857142 2.04 2.0285714285714285 2.0285714285714285 0 0 0 1.4071428571428573 -0.6142857142857143ZM2.3857142857142857 6.614285714285714c-0.8385714285714285 -0.018571428571428572 -1.41 -0.03142857142857143 -1.41 0.9942857142857142v11.417142857142858c0 1.0042857142857142 0.5457142857142857 0.9842857142857142 1.3314285714285716 0.9542857142857144 0.14285714285714288 -0.005714285714285714 0.29285714285714287 -0.011428571428571429 0.44857142857142857 -0.011428571428571429 0.15714285714285714 0 0.30714285714285716 0.005714285714285714 0.44857142857142857 0.011428571428571429 0.7828571428571429 0.028571428571428574 1.3171428571428572 0.05 1.3171428571428572 -0.9542857142857144V7.61c0 -1.0257142857142858 -0.56 -1.0142857142857142 -1.3957142857142857 -0.9942857142857142a16.17142857142857 16.17142857142857 0 0 1 -0.7414285714285714 0Zm5.834285714285714 0.02142857142857143c-0.38 0.07571428571428572 -0.6242857142857143 0.31857142857142856 -0.6242857142857143 0.972857142857143v11.417142857142858c0 1.0042857142857142 0.5242857142857142 0.9842857142857142 1.3114285714285716 0.9542857142857144 0.14285714285714288 -0.005714285714285714 0.2957142857142857 -0.011428571428571429 0.4542857142857143 -0.011428571428571429 0.16 0 0.31142857142857144 0.005714285714285714 0.45571428571428574 0.011428571428571429 0.7914285714285715 0.028571428571428574 1.3257142857142858 0.05 1.3257142857142858 -0.9542857142857144V12.937142857142856a2.2071428571428573 2.2071428571428573 0 0 1 2.2528571428571427 -2.4214285714285717 2.1914285714285717 2.1914285714285717 0 0 1 2.3142857142857145 2.375714285714286v6.087142857142857c0 1.0057142857142858 0.5228571428571429 0.9857142857142857 1.31 0.9557142857142857 0.14285714285714288 -0.005714285714285714 0.2957142857142857 -0.011428571428571429 0.4542857142857143 -0.011428571428571429 0.16 0 0.31142857142857144 0.005714285714285714 0.45571428571428574 0.011428571428571429 0.7871428571428573 0.028571428571428574 1.31 0.05 1.31 -0.9542857142857144V11.185714285714287a4.564285714285714 4.564285714285714 0 0 0 -4.84 -4.764285714285714 3.82 3.82 0 0 0 -3.41 1.522857142857143c0.015714285714285715 -0.562857142857143 -0.16714285714285715 -1.3085714285714287 -0.6228571428571429 -1.3085714285714287 -0.13142857142857142 0 -0.3328571428571429 -0.0071428571428571435 -0.5614285714285715 -0.014285714285714287 -0.5714285714285715 -0.017142857142857144 -1.3142857142857143 -0.04 -1.5857142857142859 0.014285714285714287Z" clip-rule="evenodd" stroke-width="1.4285714285714286"></path></g></svg>