<svg xmlns="http://www.w3.org/2000/svg" fill="none" viewBox="-0.5 -0.5 48 48" height="48" width="48"><path fill="#deb0d5" d="M12.729166666666666 18.604166666666664h-9.791666666666666v25.458333333333332h9.791666666666666v-25.458333333333332Z" stroke-width="1"></path><path fill="#deb0d5" d="M30.354166666666664 26.4375a3.9166666666666665 3.9166666666666665 0 0 0 -3.9166666666666665 3.9166666666666665v13.708333333333332h-9.791666666666666v-25.458333333333332h9.791666666666666v2.908125a12.351208333333334 12.351208333333334 0 0 1 7.81375 -2.9277083333333334c5.800583333333334 0 9.81125 4.308333333333334 9.81125 12.445208333333333V44.0625h-9.791666666666666v-13.708333333333332a3.9166666666666665 3.9166666666666665 0 0 0 -3.9166666666666665 -3.9166666666666665Z" stroke-width="1"></path><path fill="#deb0d5" d="M7.833333333333333 14.6875a4.895833333333333 4.895833333333333 0 1 0 0 -9.791666666666666 4.895833333333333 4.895833333333333 0 0 0 0 9.791666666666666Z" stroke-width="1"></path><path fill="#f4d1ed" d="M12.729166666666666 18.604166666666664h-9.791666666666666v3.946041666666667h9.791666666666666V18.604166666666664Z" stroke-width="1"></path><path fill="#f4d1ed" d="M34.25125 18.584583333333335a12.355125 12.355125 0 0 0 -7.81375 2.92575V18.604166666666664h-9.791666666666666v3.946041666666667h6.883541666666667A2.908125 2.908125 0 0 1 26.4375 25.458333333333332a12.351208333333334 12.351208333333334 0 0 1 7.81375 -2.9277083333333334c5.800583333333334 0 9.81125 4.298541666666666 9.81125 12.445208333333333v-3.946041666666667c0 -8.146666666666667 -4.010666666666666 -12.445208333333333 -9.81125 -12.445208333333333Z" stroke-width="1"></path><path fill="#f4d1ed" d="M7.833333333333333 8.841874999999998a4.895833333333333 4.895833333333333 0 0 1 4.4747916666666665 2.9218333333333333 4.895833333333333 4.895833333333333 0 1 0 -8.949583333333333 0A4.895833333333333 4.895833333333333 0 0 1 7.833333333333333 8.841874999999998Z" stroke-width="1"></path><path stroke="#191919" stroke-linecap="round" stroke-linejoin="round" d="M12.729166666666666 44.0625h-9.791666666666666v-25.458333333333332h9.791666666666666v25.458333333333332Zm17.625 -17.625a3.9166666666666665 3.9166666666666665 0 0 0 -3.9166666666666665 3.9166666666666665v13.708333333333332h-9.791666666666666v-25.458333333333332h9.791666666666666v2.908125a12.351208333333334 12.351208333333334 0 0 1 7.81375 -2.9277083333333334c5.800583333333334 0 9.81125 4.308333333333334 9.81125 12.445208333333333V44.0625h-9.791666666666666v-13.708333333333332a3.9166666666666665 3.9166666666666665 0 0 0 -3.9166666666666665 -3.9166666666666665v0ZM12.729166666666666 9.791666666666666a4.895833333333333 4.895833333333333 0 1 1 -9.791666666666666 0 4.895833333333333 4.895833333333333 0 0 1 9.791666666666666 0Z" stroke-width="1"></path></svg>