<svg xmlns="http://www.w3.org/2000/svg" fill="none" viewBox="0 0 20 20" height="20" width="20"><g id="mail-send-envelope--envelope-email-message-unopened-sealed-close"><path id="Union" fill="#deb0d5" fill-rule="evenodd" d="M2.142857142857143 1.7857142857142858A2.142857142857143 2.142857142857143 0 0 0 0 3.928571428571429v12.142857142857142a2.142857142857143 2.142857142857143 0 0 0 2.142857142857143 2.142857142857143h15.714285714285715a2.142857142857143 2.142857142857143 0 0 0 2.142857142857143 -2.142857142857143v-12.142857142857142a2.142857142857143 2.142857142857143 0 0 0 -2.142857142857143 -2.142857142857143h-15.714285714285715Z" clip-rule="evenodd" stroke-width="1.4285714285714286"></path><path id="Intersect" fill="#5a5a5a" fill-rule="evenodd" d="M20 4.417142857142857 10.547142857142857 10.719999999999999A1.0285714285714285 1.0285714285714285 0 0 1 10 10.867142857142857a1.0285714285714285 1.0285714285714285 0 0 1 -0.5471428571428572 -0.14714285714285713L0 4.417142857142857v2.145714285714286l8.467142857142857 5.645714285714286 0.0071428571428571435 0.005714285714285714c0.45 0.29285714285714287 0.99 0.43857142857142856 1.5257142857142858 0.43857142857142856 0.5357142857142857 0 1.0757142857142858 -0.1457142857142857 1.5257142857142858 -0.43857142857142856L20 6.562857142857143V4.417142857142857Z" clip-rule="evenodd" stroke-width="1.4285714285714286"></path></g></svg>