<svg xmlns="http://www.w3.org/2000/svg" fill="none" viewBox="-0.5 -0.5 48 48" height="48" width="48"><path fill="#deb0d5" d="m45.041666666666664 12.979833333333334 -3.9166666666666665 -0.9791666666666666 1.9583333333333333 -3.9166666666666665 -4.825333333333333 1.3708333333333331A8.773333333333333 8.773333333333333 0 0 0 23.5 15.917333333333334v1.9583333333333333c-6.930541666666667 1.4295833333333332 -12.991583333333333 -2.3499999999999996 -18.604166666666664 -8.8125 -0.9791666666666666 5.222874999999999 0 9.139541666666666 2.9375 11.75l-5.875 -0.9791666666666666c0.793125 4.0517916666666665 2.66725 7.245833333333334 7.833333333333333 7.833333333333333l-4.895833333333333 1.9583333333333333c1.9583333333333333 3.9166666666666665 5.025083333333333 4.52375 9.791666666666666 4.895833333333333a21.050125 21.050125 0 0 1 -12.729166666666666 3.9166666666666665c24.97854166666667 11.101791666666665 39.166666666666664 -5.2170000000000005 39.166666666666664 -19.583333333333332V16.254166666666666l3.9166666666666665 -3.274333333333333Z" stroke-width="1"></path><path fill="#f5d4ee" d="M38.258 9.462666666666665A8.773333333333333 8.773333333333333 0 0 0 23.5 15.917333333333334v1.9583333333333333c-6.930541666666667 1.4295833333333332 -12.991583333333333 -2.3499999999999996 -18.604166666666664 -8.8125 -0.9791666666666666 5.222874999999999 0 9.139541666666666 2.9375 11.75l-5.875 -0.9791666666666666c0.793125 4.0517916666666665 2.66725 7.245833333333334 7.833333333333333 7.833333333333333l-4.895833333333333 1.9583333333333333c1.8878333333333333 3.7737083333333334 4.8194583333333325 4.4708749999999995 9.29425 4.850791666666666L39.58183333333333 9.084708333333333l-1.3238333333333334 0.37795833333333334Z" stroke-width="1"></path><path stroke="#191919" stroke-linecap="round" stroke-linejoin="round" d="m45.041666666666664 12.979833333333334 -3.9166666666666665 -0.9791666666666666 1.9583333333333333 -3.9166666666666665 -4.825333333333333 1.3708333333333331A8.773333333333333 8.773333333333333 0 0 0 23.5 15.917333333333334v1.9583333333333333c-6.930541666666667 1.4295833333333332 -12.991583333333333 -2.3499999999999996 -18.604166666666664 -8.8125 -0.9791666666666666 5.222874999999999 0 9.139541666666666 2.9375 11.75l-5.875 -0.9791666666666666c0.793125 4.0517916666666665 2.66725 7.245833333333334 7.833333333333333 7.833333333333333l-4.895833333333333 1.9583333333333333c1.9583333333333333 3.9166666666666665 5.025083333333333 4.52375 9.791666666666666 4.895833333333333a21.050125 21.050125 0 0 1 -12.729166666666666 3.9166666666666665c24.97854166666667 11.101791666666665 39.166666666666664 -5.2170000000000005 39.166666666666664 -19.583333333333332V16.254166666666666l3.9166666666666665 -3.274333333333333Z" stroke-width="1"></path></svg>